<svg width="36" height="36" viewBox="0 0 36 36" fill="none" xmlns="http://www.w3.org/2000/svg">
<path fill-rule="evenodd" clip-rule="evenodd" d="M25.5682 0H10.5341C4.80681 0 0 4.57476 0 10.1438V25.7572C0 31.3262 4.70453 35.9 10.5341 35.9H14.4204C14.4204 33.016 14.4205 27.547 14.5227 22.5747H9.71591V16.906H14.5227C14.5227 14.5193 14.5227 12.729 14.5227 12.2318C14.5227 10.044 16.9773 5.0716 20.7614 5.2705C24.4432 5.36994 26.6932 5.56864 26.6932 5.56864V11.0382C26.6932 11.0382 24.2386 11.0382 23.3182 11.0382C22.3977 11.0382 20.5568 11.436 20.5568 14.0216C20.5568 14.5189 20.5568 15.5133 20.5568 17.005H26.0795L25.2614 22.6737H20.5568C20.5568 27.5466 20.5568 33.116 20.5568 36H25.5682C31.2955 36 36 31.4252 36 25.8562V10.2428C36 4.57437 31.2955 0 25.5682 0Z" fill="#AFC045"/>
</svg>
