<svg width="36" height="36" viewBox="0 0 36 36" fill="none" xmlns="http://www.w3.org/2000/svg">
<path fill-rule="evenodd" clip-rule="evenodd" d="M25.6693 0H10.5336C4.8066 0 0 4.58653 0 10.1711V25.8279C0 31.4125 4.70434 36 10.5336 36H25.567C31.2941 36 35.9984 31.4125 35.9984 25.8279V10.1711C36.1006 4.58653 31.3963 0 25.6693 0ZM12.988 27.0248H8.38598V13.4627H12.988V27.0248ZM10.6359 11.5676C8.9996 11.5676 8.07919 10.57 8.07919 9.17384C8.07919 7.87742 9.10188 6.78104 10.7382 6.78104C12.2722 6.78104 13.2949 7.7777 13.2949 9.17384C13.2949 10.4702 12.2722 11.5676 10.6359 11.5676ZM29.6578 27.0248H25.0557V19.7452C25.0557 17.9501 24.3398 16.6531 22.7035 16.6531C21.374 16.6531 20.6582 17.4511 20.3514 18.3486C20.2491 18.6478 20.2491 19.0473 20.2491 19.4462V27.0248H15.647C15.647 27.0248 15.7493 14.6594 15.647 13.4627H20.2491V15.3569C20.8627 14.4594 21.9876 13.0635 24.4421 13.0635C27.5101 13.0635 29.76 14.9578 29.76 19.1462V27.0248H29.6578Z" fill="#AFC045"/>
</svg>
