<svg width="36" height="36" viewBox="0 0 36 36" fill="none" xmlns="http://www.w3.org/2000/svg">
<path fill-rule="evenodd" clip-rule="evenodd" d="M28.125 5.78418C26.7954 5.78418 25.7727 6.78123 25.7727 8.07764C25.7727 9.37405 26.7954 10.3721 28.125 10.3721C29.4545 10.3721 30.4773 9.37405 30.4773 8.07764C30.4773 6.78123 29.4545 5.78418 28.125 5.78418Z" fill="#AFC045"/>
<path fill-rule="evenodd" clip-rule="evenodd" d="M18.1023 8.17773C12.5796 8.17773 8.18188 12.4661 8.18188 17.8512C8.18188 23.2363 12.5796 27.5236 18.1023 27.5236C23.6251 27.5236 28.0228 23.2363 28.0228 17.8512C27.9205 12.5658 23.5228 8.17773 18.1023 8.17773ZM18.0001 24.2329C14.4205 24.2329 11.4546 21.4408 11.4546 17.9505C11.4546 14.4602 14.3183 11.5678 18.0001 11.5678C21.5796 11.5678 24.4433 14.3604 24.4433 17.9505C24.5455 21.4408 21.5796 24.2329 18.0001 24.2329Z" fill="#AFC045"/>
<path fill-rule="evenodd" clip-rule="evenodd" d="M25.5682 0H10.5341C4.80682 0 0 4.5875 0 10.1721V25.8289C0 31.4135 4.70455 36 10.5341 36H25.5682C31.2955 36 36 31.4135 36 25.8289V10.1721C36 4.5875 31.2955 0 25.5682 0ZM33.2386 25.8289C33.2386 27.8234 32.4205 29.718 30.9886 31.1141C29.5568 32.5102 27.6136 33.3082 25.5682 33.3082H10.5341C8.48864 33.3082 6.54545 32.5102 5.11364 31.1141C3.68182 29.718 2.86364 27.8234 2.86364 25.8289V10.1721C2.86364 8.17757 3.68182 6.28301 5.11364 4.88687C6.54545 3.49073 8.48864 2.69274 10.5341 2.69274H25.5682C27.6136 2.69274 29.5568 3.49073 30.9886 4.88687C32.4205 6.28301 33.2386 8.17757 33.2386 10.1721V25.8289Z" fill="#AFC045"/>
</svg>
